<mxfile host="app.diagrams.net" agent="Mozilla/5.0 (Windows NT 10.0; Win64; x64) AppleWebKit/537.36 (KHTML, like Gecko) Chrome/119.0.0.0 Safari/537.36" version="25.0.3">
  <diagram name="Page-1" id="nIRvAA5RnEUG4UZdYNOL">
    <mxGraphModel dx="1050" dy="565" grid="1" gridSize="10" guides="1" tooltips="1" connect="1" arrows="1" fold="1" page="1" pageScale="1" pageWidth="827" pageHeight="1169" math="0" shadow="0">
      <root>
        <mxCell id="0" />
        <mxCell id="1" parent="0" />
        <mxCell id="Sz4tGzFsE_f3HUdBAajW-1" value="" style="verticalAlign=top;align=left;spacingTop=8;spacingLeft=2;spacingRight=12;shape=cube;size=10;direction=south;fontStyle=4;html=1;whiteSpace=wrap;" vertex="1" parent="1">
          <mxGeometry x="70" y="80" width="180" height="120" as="geometry" />
        </mxCell>
        <mxCell id="Sz4tGzFsE_f3HUdBAajW-2" value="&amp;lt;&amp;lt;PC&amp;gt;&amp;gt;&lt;br&gt;Klijent" style="text;html=1;align=center;verticalAlign=middle;resizable=0;points=[];autosize=1;strokeColor=none;fillColor=none;" vertex="1" parent="1">
          <mxGeometry x="120" y="110" width="70" height="40" as="geometry" />
        </mxCell>
        <mxCell id="Sz4tGzFsE_f3HUdBAajW-3" value="Web čitač" style="text;html=1;align=center;verticalAlign=middle;resizable=0;points=[];autosize=1;strokeColor=none;fillColor=none;" vertex="1" parent="1">
          <mxGeometry x="60" y="208" width="80" height="30" as="geometry" />
        </mxCell>
        <mxCell id="Sz4tGzFsE_f3HUdBAajW-4" value="" style="verticalAlign=top;align=left;spacingTop=8;spacingLeft=2;spacingRight=12;shape=cube;size=10;direction=south;fontStyle=4;html=1;whiteSpace=wrap;" vertex="1" parent="1">
          <mxGeometry x="360" y="80" width="180" height="120" as="geometry" />
        </mxCell>
        <mxCell id="Sz4tGzFsE_f3HUdBAajW-5" value="" style="verticalAlign=top;align=left;spacingTop=8;spacingLeft=2;spacingRight=12;shape=cube;size=10;direction=south;fontStyle=4;html=1;whiteSpace=wrap;" vertex="1" parent="1">
          <mxGeometry x="650" y="80" width="180" height="120" as="geometry" />
        </mxCell>
        <mxCell id="Sz4tGzFsE_f3HUdBAajW-6" value="&amp;lt;&amp;lt;PC&amp;gt;&amp;gt;&lt;br&gt;Web server" style="text;html=1;align=center;verticalAlign=middle;resizable=0;points=[];autosize=1;strokeColor=none;fillColor=none;" vertex="1" parent="1">
          <mxGeometry x="410" y="110" width="80" height="40" as="geometry" />
        </mxCell>
        <mxCell id="Sz4tGzFsE_f3HUdBAajW-8" value="&amp;lt;&amp;lt;PC&amp;gt;&amp;gt;&lt;br&gt;DBMS server" style="text;html=1;align=center;verticalAlign=middle;resizable=0;points=[];autosize=1;strokeColor=none;fillColor=none;" vertex="1" parent="1">
          <mxGeometry x="695" y="110" width="90" height="40" as="geometry" />
        </mxCell>
        <mxCell id="Sz4tGzFsE_f3HUdBAajW-9" value="" style="line;strokeWidth=1;fillColor=none;align=left;verticalAlign=middle;spacingTop=-1;spacingLeft=3;spacingRight=3;rotatable=0;labelPosition=right;points=[];portConstraint=eastwest;strokeColor=inherit;" vertex="1" parent="1">
          <mxGeometry x="250" y="142" width="110" height="8" as="geometry" />
        </mxCell>
        <mxCell id="Sz4tGzFsE_f3HUdBAajW-10" value="" style="line;strokeWidth=1;fillColor=none;align=left;verticalAlign=middle;spacingTop=-1;spacingLeft=3;spacingRight=3;rotatable=0;labelPosition=right;points=[];portConstraint=eastwest;strokeColor=inherit;" vertex="1" parent="1">
          <mxGeometry x="540" y="142" width="110" height="8" as="geometry" />
        </mxCell>
        <mxCell id="Sz4tGzFsE_f3HUdBAajW-12" value="Internet" style="text;html=1;align=center;verticalAlign=middle;resizable=0;points=[];autosize=1;strokeColor=none;fillColor=none;" vertex="1" parent="1">
          <mxGeometry x="250" y="118" width="60" height="30" as="geometry" />
        </mxCell>
        <mxCell id="Sz4tGzFsE_f3HUdBAajW-13" value="LAN" style="text;html=1;align=center;verticalAlign=middle;resizable=0;points=[];autosize=1;strokeColor=none;fillColor=none;" vertex="1" parent="1">
          <mxGeometry x="545" y="118" width="50" height="30" as="geometry" />
        </mxCell>
        <mxCell id="Sz4tGzFsE_f3HUdBAajW-14" value="Web server&lt;div&gt;Node.js&lt;/div&gt;" style="text;html=1;align=center;verticalAlign=middle;resizable=0;points=[];autosize=1;strokeColor=none;fillColor=none;" vertex="1" parent="1">
          <mxGeometry x="360" y="203" width="80" height="40" as="geometry" />
        </mxCell>
        <mxCell id="Sz4tGzFsE_f3HUdBAajW-16" value="MongoDB" style="text;html=1;align=center;verticalAlign=middle;resizable=0;points=[];autosize=1;strokeColor=none;fillColor=none;" vertex="1" parent="1">
          <mxGeometry x="640" y="208" width="80" height="30" as="geometry" />
        </mxCell>
      </root>
    </mxGraphModel>
  </diagram>
</mxfile>
